<?xml version="1.0" standalone="no"?>
<!DOCTYPE svg PUBLIC "-//W3C//DTD SVG 20010904//EN"
 "http://www.w3.org/TR/2001/REC-SVG-20010904/DTD/svg10.dtd">
<svg version="1.0" xmlns="http://www.w3.org/2000/svg"
 width="736.000000pt" height="736.000000pt" viewBox="0 0 736.000000 736.000000"
 preserveAspectRatio="xMidYMid meet">

<g transform="translate(0.000000,736.000000) scale(0.100000,-0.100000)"
fill="#000000" stroke="none">
<path d="M3516 5999 c-196 -21 -385 -77 -564 -169 -160 -81 -286 -173 -412
-300 -213 -215 -348 -453 -419 -742 -39 -156 -51 -263 -51 -460 0 -155 0 -158
-22 -163 -13 -3 -207 -46 -432 -95 -225 -49 -411 -92 -414 -94 -3 -3 350 -477
450 -602 5 -8 -73 -157 -226 -430 -129 -230 -234 -419 -233 -420 1 -1 137 22
302 52 165 29 301 54 303 54 1 0 2 -18 2 -40 0 -37 2 -40 23 -35 12 3 180 30
372 61 193 30 532 85 755 120 223 36 502 80 620 99 118 19 595 95 1060 170
465 75 864 138 888 142 l42 6 0 463 0 463 33 6 c261 48 463 83 465 81 2 -3
-384 -696 -413 -743 -13 -20 0 -39 202 -307 119 -157 214 -288 212 -290 -7 -6
-751 -168 -755 -164 -2 2 66 91 152 197 85 106 154 194 152 196 -2 1 -149 -22
-328 -51 -179 -28 -653 -105 -1055 -169 -401 -64 -867 -138 -1035 -165 -678
-109 -1374 -220 -1382 -220 -4 0 -8 -13 -8 -30 0 -27 3 -29 28 -25 55 11 327
53 327 51 0 0 16 -39 34 -86 104 -265 314 -534 551 -703 107 -76 317 -184 430
-221 331 -109 689 -109 1020 0 113 37 323 145 429 221 285 204 523 543 608
865 l17 65 445 97 c245 54 452 101 459 105 8 5 -63 105 -218 310 -204 270
-228 306 -218 325 14 29 239 431 359 644 65 114 92 172 83 172 -8 0 -141 -22
-294 -50 -153 -27 -284 -50 -289 -50 -6 0 -11 16 -11 35 0 24 -5 35 -15 35 -8
0 -169 -25 -357 -55 -189 -30 -444 -71 -568 -91 -124 -20 -808 -129 -1520
-243 l-1295 -207 -5 -464 -5 -464 -240 -43 c-132 -23 -243 -41 -247 -40 -6 2
207 391 374 682 25 44 43 85 39 90 -5 6 -101 133 -215 284 -115 150 -204 277
-199 281 4 4 87 25 183 45 96 21 263 57 370 81 107 23 196 41 198 40 1 -2 -67
-90 -152 -197 -86 -106 -154 -194 -153 -195 2 -3 1349 211 1997 316 102 16
538 86 970 155 432 69 797 128 813 131 20 4 27 11 27 30 0 18 -5 24 -22 24
-22 0 -176 -24 -225 -35 -22 -5 -23 -3 -23 64 0 414 -171 828 -464 1125 -343
348 -832 525 -1310 475z m464 -114 c226 -49 480 -169 645 -302 67 -55 210
-203 261 -270 194 -258 290 -528 309 -875 l7 -117 -29 -6 c-15 -3 -35 -8 -44
-9 -14 -3 -17 15 -23 128 -19 357 -130 641 -350 898 -206 241 -519 418 -835
472 -122 21 -359 21 -477 1 -564 -98 -1013 -515 -1148 -1067 -37 -152 -46
-265 -46 -597 l0 -299 -41 -4 c-22 -2 -42 -2 -45 1 -8 9 -4 568 6 679 19 209
64 370 156 557 214 432 632 740 1119 821 109 18 432 12 535 -11z m-55 -111
c302 -51 610 -226 811 -462 213 -250 326 -539 341 -878 l6 -133 -27 -7 c-48
-12 -257 2 -310 21 -66 24 -131 88 -146 144 -15 58 -6 104 31 146 85 97 237
41 215 -78 -8 -41 -31 -64 -69 -69 -38 -4 -39 -22 -1 -26 40 -4 80 29 95 78
10 33 9 47 -5 84 -22 57 -66 86 -130 86 -99 0 -169 -72 -169 -175 0 -111 96
-211 222 -231 23 -4 40 -9 38 -11 -5 -5 -239 -44 -612 -102 -143 -23 -269 -43
-280 -46 -15 -3 -12 2 10 18 49 35 155 140 173 169 15 25 22 28 69 28 125 0
240 80 263 183 12 52 11 59 -11 104 -27 55 -77 88 -147 99 -25 4 -53 16 -66
29 -44 44 -225 87 -424 101 -56 4 -102 11 -102 16 0 20 49 106 103 181 79 111
101 160 105 239 4 56 1 73 -18 103 -23 37 -40 42 -21 7 16 -29 14 -107 -4
-148 -8 -19 -42 -73 -75 -119 -75 -103 -108 -167 -118 -225 l-7 -45 -68 -3
c-50 -2 -67 0 -67 10 1 29 49 128 107 218 79 125 110 187 129 262 27 106 -2
222 -67 269 l-29 21 25 -48 c52 -97 29 -190 -94 -376 -93 -143 -137 -235 -147
-306 l-6 -50 -82 -7 c-178 -15 -331 -50 -388 -89 -33 -22 -33 -23 -31 -94 5
-179 102 -370 248 -492 52 -42 199 -120 228 -120 9 0 17 -4 17 -10 0 -5 -10
-10 -22 -10 -13 0 -200 -29 -415 -63 -216 -35 -393 -62 -393 -60 0 1 16 10 36
18 61 25 168 102 202 145 57 70 77 125 77 215 0 96 -21 142 -89 202 -91 80
-218 84 -302 11 -60 -53 -83 -126 -64 -198 15 -54 76 -115 124 -124 45 -9 106
9 106 31 0 10 -5 13 -17 8 -76 -30 -142 -3 -175 71 -51 116 35 234 171 234 65
0 117 -26 165 -82 90 -104 71 -262 -46 -379 -83 -83 -284 -168 -480 -203 l-38
-7 0 308 c0 389 14 508 82 708 23 68 91 209 133 276 262 418 746 675 1235 653
58 -3 146 -12 195 -20z m-466 -1016 c7 -24 17 -48 23 -55 5 -7 6 -18 2 -24 -4
-7 -3 -9 3 -6 6 4 21 -5 34 -19 l24 -26 -100 7 c-218 14 -372 47 -382 80 -2 6
6 16 18 23 16 10 24 11 35 1 12 -10 13 -9 8 6 -6 15 -3 17 19 13 15 -3 24 -1
21 3 -3 5 2 9 10 9 8 0 18 -4 21 -10 3 -5 18 -9 33 -9 27 1 27 1 -3 9 l-30 7
26 7 c27 8 144 23 195 25 28 1 32 -3 43 -41z m220 15 c12 -16 21 -23 20 -18
-6 47 -4 48 94 41 209 -15 360 -57 326 -92 -34 -34 -300 -74 -491 -74 -67 0
-75 8 -94 108 l-12 62 68 0 c63 0 70 -2 89 -27z m653 -144 c34 -18 48 -41 48
-81 0 -57 -62 -120 -138 -138 -29 -7 -55 -11 -57 -9 -2 2 8 37 21 78 14 40 28
95 31 122 l6 49 36 -6 c20 -4 44 -11 53 -15z m-1162 -39 c54 -11 141 -23 192
-26 88 -6 158 -23 98 -24 -46 0 -168 -66 -190 -102 -39 -61 -9 -171 68 -250
44 -47 36 -48 -31 -5 -108 70 -212 212 -251 346 -21 71 -21 95 0 87 8 -3 60
-15 114 -26z m980 18 c-1 -63 -77 -237 -131 -298 -16 -19 -26 -26 -21 -15 22
45 44 154 46 224 l2 74 39 13 c53 16 65 16 65 2z m1058 -670 l-3 -63 -40 -6
c-22 -4 -73 -12 -112 -19 l-73 -12 0 -65 0 -66 53 7 c28 3 69 9 90 12 l37 7 0
-65 0 -65 -87 -14 -88 -14 -3 -73 c-2 -39 1 -72 5 -72 4 0 49 7 98 15 134 22
126 25 123 -47 l-3 -62 -135 -21 c-74 -12 -154 -25 -177 -29 l-43 -6 0 333 0
333 158 26 c222 37 204 40 200 -34z m62 -33 c13 -14 21 -25 18 -25 -2 0 -15
11 -28 25 -13 14 -21 25 -18 25 2 0 15 -11 28 -25z m-590 -49 l0 -64 -62 -11
c-35 -6 -83 -13 -108 -17 -25 -4 -48 -12 -52 -18 -10 -14 -7 -115 2 -121 7 -4
85 7 148 20 21 5 22 3 22 -59 0 -73 7 -68 -108 -86 l-73 -12 2 -69 c2 -63 4
-69 23 -69 21 0 127 16 179 26 l27 6 0 -65 0 -64 -163 -27 c-90 -14 -171 -26
-180 -26 -16 0 -17 27 -17 330 l0 329 33 6 c27 5 297 51 320 54 4 1 7 -28 7
-63z m595 14 c10 -11 16 -20 13 -20 -3 0 -13 9 -23 20 -10 11 -16 20 -13 20 3
0 13 -9 23 -20z m-30 -40 c10 -11 16 -20 13 -20 -3 0 -13 9 -23 20 -10 11 -16
20 -13 20 3 0 13 -9 23 -20z m-1065 -54 l0 -64 -72 -12 c-40 -7 -91 -15 -112
-19 l-39 -6 -2 -63 c0 -35 2 -65 6 -68 6 -3 86 8 147 21 21 5 22 3 22 -60 0
-73 9 -65 -104 -85 -33 -5 -62 -12 -65 -15 -3 -3 -6 -62 -7 -131 0 -69 -5
-129 -10 -134 -5 -4 -35 -11 -66 -15 l-58 -7 0 330 0 331 33 6 c27 5 297 51
320 54 4 1 7 -28 7 -63z m1031 47 c13 -16 12 -17 -3 -4 -10 7 -18 15 -18 17 0
8 8 3 21 -13z m-96 -13 c10 -11 16 -20 13 -20 -3 0 -13 9 -23 20 -10 11 -16
20 -13 20 3 0 13 -9 23 -20z m40 0 c10 -11 16 -20 13 -20 -3 0 -13 9 -23 20
-10 11 -16 20 -13 20 3 0 13 -9 23 -20z m46 -7 c13 -16 12 -17 -3 -4 -10 7
-18 15 -18 17 0 8 8 3 21 -13z m-470 -10 c13 -16 12 -17 -3 -4 -10 7 -18 15
-18 17 0 8 8 3 21 -13z m-496 -33 c10 -11 16 -20 13 -20 -3 0 -13 9 -23 20
-10 11 -16 20 -13 20 3 0 13 -9 23 -20z m500 0 c10 -11 16 -20 13 -20 -3 0
-13 9 -23 20 -10 11 -16 20 -13 20 3 0 13 -9 23 -20z m296 -7 c13 -16 12 -17
-3 -4 -17 13 -22 21 -14 21 2 0 10 -8 17 -17z m-1351 -57 l0 -64 -72 -12 c-40
-7 -91 -15 -113 -19 l-40 -7 -1 -67 c0 -37 2 -67 6 -67 8 0 117 19 148 25 21
5 22 3 22 -59 0 -72 2 -70 -85 -82 -96 -13 -91 -5 -90 -149 0 -74 -4 -130 -10
-135 -5 -4 -36 -11 -67 -15 l-58 -7 0 330 0 331 33 6 c27 5 297 51 320 54 4 1
7 -28 7 -63z m560 29 c13 -14 21 -25 18 -25 -2 0 -15 11 -28 25 -13 14 -21 25
-18 25 2 0 15 -11 28 -25z m411 8 c13 -16 12 -17 -3 -4 -17 13 -22 21 -14 21
2 0 10 -8 17 -17z m40 0 c13 -16 12 -17 -3 -4 -10 7 -18 15 -18 17 0 8 8 3 21
-13z m40 0 c13 -16 12 -17 -3 -4 -10 7 -18 15 -18 17 0 8 8 3 21 -13z m-176
-13 c10 -11 16 -20 13 -20 -3 0 -13 9 -23 20 -10 11 -16 20 -13 20 3 0 13 -9
23 -20z m46 -7 c13 -16 12 -17 -3 -4 -10 7 -18 15 -18 17 0 8 8 3 21 -13z
m-96 -13 c10 -11 16 -20 13 -20 -3 0 -13 9 -23 20 -10 11 -16 20 -13 20 3 0
13 -9 23 -20z m-259 -12 l19 -23 -25 20 c-14 11 -27 21 -29 22 -2 2 0 3 6 3 5
0 18 -10 29 -22z m-511 -8 c10 -11 16 -20 13 -20 -3 0 -13 9 -23 20 -10 11
-16 20 -13 20 3 0 13 -9 23 -20z m430 -20 c10 -11 16 -20 13 -20 -3 0 -13 9
-23 20 -10 11 -16 20 -13 20 3 0 13 -9 23 -20z m-425 -15 c13 -14 21 -25 18
-25 -2 0 -15 11 -28 25 -13 14 -21 25 -18 25 2 0 15 -11 28 -25z m471 8 c13
-16 12 -17 -3 -4 -10 7 -18 15 -18 17 0 8 8 3 21 -13z m-1141 -21 c19 -9 43
-33 55 -52 18 -32 20 -52 20 -235 0 -236 -10 -276 -78 -326 -81 -58 -235 -81
-309 -45 -62 30 -72 65 -76 263 -2 106 1 194 8 228 24 116 125 181 285 184 39
1 72 -5 95 -17z m1011 1 c13 -16 12 -17 -3 -4 -17 13 -22 21 -14 21 2 0 10 -8
17 -17z m1130 0 c13 -16 12 -17 -3 -4 -10 7 -18 15 -18 17 0 8 8 3 21 -13z m0
-30 c13 -16 12 -17 -3 -4 -10 7 -18 15 -18 17 0 8 8 3 21 -13z m-1461 -30 c0
-7 -39 17 -46 28 -3 6 5 3 20 -6 14 -10 26 -19 26 -22z m935 7 c10 -11 16 -20
13 -20 -3 0 -13 9 -23 20 -10 11 -16 20 -13 20 3 0 13 -9 23 -20z m-974 -7
c13 -16 12 -17 -3 -4 -10 7 -18 15 -18 17 0 8 8 3 21 -13z m1509 -8 c13 -14
21 -25 18 -25 -2 0 -15 11 -28 25 -13 14 -21 25 -18 25 2 0 15 -11 28 -25z
m-1689 -2 c13 -16 12 -17 -3 -4 -17 13 -22 21 -14 21 2 0 10 -8 17 -17z m50
-10 c13 -16 12 -17 -3 -4 -10 7 -18 15 -18 17 0 8 8 3 21 -13z m1109 -8 c13
-14 21 -25 18 -25 -2 0 -15 11 -28 25 -13 14 -21 25 -18 25 2 0 15 -11 28 -25z
m435 5 c10 -11 16 -20 13 -20 -3 0 -13 9 -23 20 -10 11 -16 20 -13 20 3 0 13
-9 23 -20z m-34 -7 c13 -16 12 -17 -3 -4 -17 13 -22 21 -14 21 2 0 10 -8 17
-17z m-2634 -13 c42 -25 65 -72 67 -134 l1 -51 -60 -12 c-68 -13 -75 -11 -75
22 0 36 -26 55 -76 55 -34 0 -51 -6 -76 -29 l-33 -29 0 -155 c0 -182 6 -197
82 -197 36 0 50 6 74 29 24 25 29 38 29 79 0 55 -2 54 94 68 l49 7 -5 -75
c-11 -167 -105 -248 -291 -248 -83 0 -120 18 -148 72 -17 33 -19 60 -19 238 0
217 6 249 57 302 23 24 98 60 148 71 57 13 151 6 182 -13z m744 -17 c13 -16
12 -17 -3 -4 -17 13 -22 21 -14 21 2 0 10 -8 17 -17z m320 0 c13 -16 12 -17
-3 -4 -17 13 -22 21 -14 21 2 0 10 -8 17 -17z m1174 -3 c10 -11 16 -20 13 -20
-3 0 -13 9 -23 20 -10 11 -16 20 -13 20 3 0 13 -9 23 -20z m345 -15 c13 -14
21 -25 18 -25 -2 0 -15 11 -28 25 -13 14 -21 25 -18 25 2 0 15 -11 28 -25z
m-1840 -10 c13 -14 21 -25 18 -25 -2 0 -15 11 -28 25 -13 14 -21 25 -18 25 2
0 15 -11 28 -25z m1365 -25 c10 -11 16 -20 13 -20 -3 0 -13 9 -23 20 -10 11
-16 20 -13 20 3 0 13 -9 23 -20z m106 3 c13 -16 12 -17 -3 -4 -17 13 -22 21
-14 21 2 0 10 -8 17 -17z m-60 -10 c13 -16 12 -17 -3 -4 -10 7 -18 15 -18 17
0 8 8 3 21 -13z m-1400 -10 c13 -16 12 -17 -3 -4 -17 13 -22 21 -14 21 2 0 10
-8 17 -17z m974 -23 c10 -11 16 -20 13 -20 -3 0 -13 9 -23 20 -10 11 -16 20
-13 20 3 0 13 -9 23 -20z m-1610 -30 c10 -11 16 -20 13 -20 -3 0 -13 9 -23 20
-10 11 -16 20 -13 20 3 0 13 -9 23 -20z m616 3 c13 -16 12 -17 -3 -4 -17 13
-22 21 -14 21 2 0 10 -8 17 -17z m510 0 c13 -16 12 -17 -3 -4 -17 13 -22 21
-14 21 2 0 10 -8 17 -17z m444 -3 c10 -11 16 -20 13 -20 -3 0 -13 9 -23 20
-10 11 -16 20 -13 20 3 0 13 -9 23 -20z m40 0 c10 -11 16 -20 13 -20 -3 0 -13
9 -23 20 -10 11 -16 20 -13 20 3 0 13 -9 23 -20z m-100 -10 c10 -11 16 -20 13
-20 -3 0 -13 9 -23 20 -10 11 -16 20 -13 20 3 0 13 -9 23 -20z m-45 -27 c0 -7
-39 17 -46 28 -3 6 5 3 20 -6 14 -10 26 -19 26 -22z m15 17 c10 -11 16 -20 13
-20 -3 0 -13 9 -23 20 -10 11 -16 20 -13 20 3 0 13 -9 23 -20z m-1714 -7 c13
-16 12 -17 -3 -4 -10 7 -18 15 -18 17 0 8 8 3 21 -13z m854 -3 c10 -11 16 -20
13 -20 -3 0 -13 9 -23 20 -10 11 -16 20 -13 20 3 0 13 -9 23 -20z m2080 0 c10
-11 16 -20 13 -20 -3 0 -13 9 -23 20 -10 11 -16 20 -13 20 3 0 13 -9 23 -20z
m-2694 -7 c13 -16 12 -17 -3 -4 -10 7 -18 15 -18 17 0 8 8 3 21 -13z m1424 -3
c10 -11 16 -20 13 -20 -3 0 -13 9 -23 20 -10 11 -16 20 -13 20 3 0 13 -9 23
-20z m-1714 -7 c13 -16 12 -17 -3 -4 -10 7 -18 15 -18 17 0 8 8 3 21 -13z m40
0 c13 -16 12 -17 -3 -4 -10 7 -18 15 -18 17 0 8 8 3 21 -13z m1354 -3 c10 -11
16 -20 13 -20 -3 0 -13 9 -23 20 -10 11 -16 20 -13 20 3 0 13 -9 23 -20z
m-1400 -20 c10 -11 16 -20 13 -20 -3 0 -13 9 -23 20 -10 11 -16 20 -13 20 3 0
13 -9 23 -20z m300 0 c10 -11 16 -20 13 -20 -3 0 -13 9 -23 20 -10 11 -16 20
-13 20 3 0 13 -9 23 -20z m620 0 c10 -11 16 -20 13 -20 -3 0 -13 9 -23 20 -10
11 -16 20 -13 20 3 0 13 -9 23 -20z m800 0 c10 -11 16 -20 13 -20 -3 0 -13 9
-23 20 -10 11 -16 20 -13 20 3 0 13 -9 23 -20z m735 -5 c13 -14 21 -25 18 -25
-2 0 -15 11 -28 25 -13 14 -21 25 -18 25 2 0 15 -11 28 -25z m-2489 -2 c13
-16 12 -17 -3 -4 -10 7 -18 15 -18 17 0 8 8 3 21 -13z m1390 0 c13 -16 12 -17
-3 -4 -17 13 -22 21 -14 21 2 0 10 -8 17 -17z m44 -3 c10 -11 16 -20 13 -20
-3 0 -13 9 -23 20 -10 11 -16 20 -13 20 3 0 13 -9 23 -20z m1566 3 c13 -16 12
-17 -3 -4 -10 7 -18 15 -18 17 0 8 8 3 21 -13z m-1706 -13 c10 -11 16 -20 13
-20 -3 0 -13 9 -23 20 -10 11 -16 20 -13 20 3 0 13 -9 23 -20z m-1044 -7 c13
-16 12 -17 -3 -4 -10 7 -18 15 -18 17 0 8 8 3 21 -13z m80 0 c13 -16 12 -17
-3 -4 -10 7 -18 15 -18 17 0 8 8 3 21 -13z m1010 0 c13 -16 12 -17 -3 -4 -10
7 -18 15 -18 17 0 8 8 3 21 -13z m1614 -3 c10 -11 16 -20 13 -20 -3 0 -13 9
-23 20 -10 11 -16 20 -13 20 3 0 13 -9 23 -20z m40 0 c10 -11 16 -20 13 -20
-3 0 -13 9 -23 20 -10 11 -16 20 -13 20 3 0 13 -9 23 -20z m-2985 -15 c13 -14
21 -25 18 -25 -2 0 -15 11 -28 25 -13 14 -21 25 -18 25 2 0 15 -11 28 -25z
m291 8 c13 -16 12 -17 -3 -4 -10 7 -18 15 -18 17 0 8 8 3 21 -13z m660 0 c13
-16 12 -17 -3 -4 -17 13 -22 21 -14 21 2 0 10 -8 17 -17z m805 -5 l19 -23 -25
20 c-14 11 -27 21 -29 22 -2 2 0 3 6 3 5 0 18 -10 29 -22z m1134 -3 c13 -14
21 -25 18 -25 -2 0 -15 11 -28 25 -13 14 -21 25 -18 25 2 0 15 -11 28 -25z
m-2659 -2 c13 -16 12 -17 -3 -4 -17 13 -22 21 -14 21 2 0 10 -8 17 -17z m1014
-3 c10 -11 16 -20 13 -20 -3 0 -13 9 -23 20 -10 11 -16 20 -13 20 3 0 13 -9
23 -20z m1246 3 c13 -16 12 -17 -3 -4 -10 7 -18 15 -18 17 0 8 8 3 21 -13z
m320 0 c13 -16 12 -17 -3 -4 -17 13 -22 21 -14 21 2 0 10 -8 17 -17z m40 0
c13 -16 12 -17 -3 -4 -17 13 -22 21 -14 21 2 0 10 -8 17 -17z m-2851 -28 c13
-14 21 -25 18 -25 -2 0 -15 11 -28 25 -13 14 -21 25 -18 25 2 0 15 -11 28 -25z
m951 8 c13 -16 12 -17 -3 -4 -17 13 -22 21 -14 21 2 0 10 -8 17 -17z m1850 0
c13 -16 12 -17 -3 -4 -17 13 -22 21 -14 21 2 0 10 -8 17 -17z m-1551 -18 c13
-14 21 -25 18 -25 -2 0 -15 11 -28 25 -13 14 -21 25 -18 25 2 0 15 -11 28 -25z
m511 8 c13 -16 12 -17 -3 -4 -10 7 -18 15 -18 17 0 8 8 3 21 -13z m900 0 c13
-16 12 -17 -3 -4 -10 7 -18 15 -18 17 0 8 8 3 21 -13z m44 -3 c10 -11 16 -20
13 -20 -3 0 -13 9 -23 20 -10 11 -16 20 -13 20 3 0 13 -9 23 -20z m-1754 -17
c13 -16 12 -17 -3 -4 -17 13 -22 21 -14 21 2 0 10 -8 17 -17z m1524 -3 c10
-11 16 -20 13 -20 -3 0 -13 9 -23 20 -10 11 -16 20 -13 20 3 0 13 -9 23 -20z
m-2470 -10 c10 -11 16 -20 13 -20 -3 0 -13 9 -23 20 -10 11 -16 20 -13 20 3 0
13 -9 23 -20z m926 -7 c13 -16 12 -17 -3 -4 -17 13 -22 21 -14 21 2 0 10 -8
17 -17z m1482 -32 c-2 -3 -16 8 -31 24 l-27 28 31 -24 c17 -13 30 -26 27 -28z
m12 29 c10 -11 16 -20 13 -20 -3 0 -13 9 -23 20 -10 11 -16 20 -13 20 3 0 13
-9 23 -20z m-1164 -7 c13 -16 12 -17 -3 -4 -17 13 -22 21 -14 21 2 0 10 -8 17
-17z m480 0 c13 -16 12 -17 -3 -4 -17 13 -22 21 -14 21 2 0 10 -8 17 -17z
m589 -8 c13 -14 21 -25 18 -25 -2 0 -15 11 -28 25 -13 14 -21 25 -18 25 2 0
15 -11 28 -25z m141 8 c13 -16 12 -17 -3 -4 -10 7 -18 15 -18 17 0 8 8 3 21
-13z m-220 -10 c13 -16 12 -17 -3 -4 -10 7 -18 15 -18 17 0 8 8 3 21 -13z m44
-3 c10 -11 16 -20 13 -20 -3 0 -13 9 -23 20 -10 11 -16 20 -13 20 3 0 13 -9
23 -20z m-1355 -15 c13 -14 21 -25 18 -25 -2 0 -15 11 -28 25 -13 14 -21 25
-18 25 2 0 15 -11 28 -25z m1255 5 c10 -11 16 -20 13 -20 -3 0 -13 9 -23 20
-10 11 -16 20 -13 20 3 0 13 -9 23 -20z m45 -5 c13 -14 21 -25 18 -25 -2 0
-15 11 -28 25 -13 14 -21 25 -18 25 2 0 15 -11 28 -25z m-979 -2 c13 -16 12
-17 -3 -4 -17 13 -22 21 -14 21 2 0 10 -8 17 -17z m480 0 c13 -16 12 -17 -3
-4 -17 13 -22 21 -14 21 2 0 10 -8 17 -17z m-1750 -10 c13 -16 12 -17 -3 -4
-10 7 -18 15 -18 17 0 8 8 3 21 -13z m949 -18 c13 -14 21 -25 18 -25 -2 0 -15
11 -28 25 -13 14 -21 25 -18 25 2 0 15 -11 28 -25z m1211 8 c13 -16 12 -17 -3
-4 -17 13 -22 21 -14 21 2 0 10 -8 17 -17z m-2160 -20 c13 -16 12 -17 -3 -4
-10 7 -18 15 -18 17 0 8 8 3 21 -13z m1764 -3 c10 -11 16 -20 13 -20 -3 0 -13
9 -23 20 -10 11 -16 20 -13 20 3 0 13 -9 23 -20z m-514 -7 c13 -16 12 -17 -3
-4 -17 13 -22 21 -14 21 2 0 10 -8 17 -17z m520 -29 c9 -11 2 -9 -18 6 -18 13
-33 25 -33 27 0 8 38 -17 51 -33z m-1761 1 c13 -14 21 -25 18 -25 -2 0 -15 11
-28 25 -13 14 -21 25 -18 25 2 0 15 -11 28 -25z m951 8 c13 -16 12 -17 -3 -4
-17 13 -22 21 -14 21 2 0 10 -8 17 -17z m764 -3 c10 -11 16 -20 13 -20 -3 0
-13 9 -23 20 -10 11 -16 20 -13 20 3 0 13 -9 23 -20z m-1374 -7 c13 -16 12
-17 -3 -4 -17 13 -22 21 -14 21 2 0 10 -8 17 -17z m909 -8 c13 -14 21 -25 18
-25 -2 0 -15 11 -28 25 -13 14 -21 25 -18 25 2 0 15 -11 28 -25z m-335 -15
c10 -11 16 -20 13 -20 -3 0 -13 9 -23 20 -10 11 -16 20 -13 20 3 0 13 -9 23
-20z m36 3 c13 -16 12 -17 -3 -4 -17 13 -22 21 -14 21 2 0 10 -8 17 -17z m720
0 c13 -16 12 -17 -3 -4 -17 13 -22 21 -14 21 2 0 10 -8 17 -17z m-1666 -13
c10 -11 16 -20 13 -20 -3 0 -13 9 -23 20 -10 11 -16 20 -13 20 3 0 13 -9 23
-20z m336 3 c13 -16 12 -17 -3 -4 -17 13 -22 21 -14 21 2 0 10 -8 17 -17z
m-30 -10 c13 -16 12 -17 -3 -4 -10 7 -18 15 -18 17 0 8 8 3 21 -13z m944 -3
c10 -11 16 -20 13 -20 -3 0 -13 9 -23 20 -10 11 -16 20 -13 20 3 0 13 -9 23
-20z m-340 -10 c10 -11 16 -20 13 -20 -3 0 -13 9 -23 20 -10 11 -16 20 -13 20
3 0 13 -9 23 -20z m-600 -20 c10 -11 16 -20 13 -20 -3 0 -13 9 -23 20 -10 11
-16 20 -13 20 3 0 13 -9 23 -20z m900 0 c10 -11 16 -20 13 -20 -3 0 -13 9 -23
20 -10 11 -16 20 -13 20 3 0 13 -9 23 -20z m40 0 c10 -11 16 -20 13 -20 -3 0
-13 9 -23 20 -10 11 -16 20 -13 20 3 0 13 -9 23 -20z m-375 -15 c13 -14 21
-25 18 -25 -2 0 -15 11 -28 25 -13 14 -21 25 -18 25 2 0 15 -11 28 -25z m301
8 c13 -16 12 -17 -3 -4 -17 13 -22 21 -14 21 2 0 10 -8 17 -17z m-871 -18 c13
-14 21 -25 18 -25 -2 0 -15 11 -28 25 -13 14 -21 25 -18 25 2 0 15 -11 28 -25z
m855 5 c10 -11 16 -20 13 -20 -3 0 -13 9 -23 20 -10 11 -16 20 -13 20 3 0 13
-9 23 -20z m-325 -25 c13 -14 21 -25 18 -25 -2 0 -15 11 -28 25 -13 14 -21 25
-18 25 2 0 15 -11 28 -25z m35 5 c10 -11 16 -20 13 -20 -3 0 -13 9 -23 20 -10
11 -16 20 -13 20 3 0 13 -9 23 -20z m-590 -30 c10 -11 16 -20 13 -20 -3 0 -13
9 -23 20 -10 11 -16 20 -13 20 3 0 13 -9 23 -20z m510 0 c10 -11 16 -20 13
-20 -3 0 -13 9 -23 20 -10 11 -16 20 -13 20 3 0 13 -9 23 -20z m-520 -20 c10
-11 16 -20 13 -20 -3 0 -13 9 -23 20 -10 11 -16 20 -13 20 3 0 13 -9 23 -20z
m435 -5 c13 -14 21 -25 18 -25 -2 0 -15 11 -28 25 -13 14 -21 25 -18 25 2 0
15 -11 28 -25z m36 3 l19 -23 -25 20 c-14 11 -27 21 -29 22 -2 2 0 3 6 3 5 0
18 -10 29 -22z m2182 -89 c-9 -120 -44 -273 -94 -405 -77 -206 -175 -355 -344
-524 -225 -225 -456 -353 -761 -422 -90 -20 -131 -23 -309 -23 -178 0 -219 3
-309 23 -431 97 -798 365 -1010 738 -52 91 -113 236 -103 245 4 4 23 9 43 12
l36 5 29 -71 c35 -86 115 -224 179 -307 205 -266 475 -442 810 -526 81 -21
133 -27 275 -31 264 -8 440 28 657 132 353 169 621 469 743 831 35 102 70 274
70 342 0 65 13 79 70 81 l26 1 -8 -101z m-2677 74 c13 -16 12 -17 -3 -4 -10 7
-18 15 -18 17 0 8 8 3 21 -13z m2564 -45 c-11 -101 -16 -117 -33 -122 -9 -3
-95 -17 -189 -32 -124 -20 -173 -31 -173 -41 0 -17 7 -17 200 15 91 16 167 24
168 20 2 -5 -1 -30 -8 -57 l-11 -49 -175 -27 c-128 -20 -174 -31 -174 -41 0
-17 -13 -18 170 11 85 14 158 25 162 25 11 0 -40 -135 -85 -225 -64 -128 -154
-252 -265 -364 -57 -57 -105 -101 -108 -98 -3 3 2 20 12 39 25 46 24 151 0
202 -43 86 -151 103 -208 32 -18 -21 -23 -61 -12 -91 9 -22 61 -47 84 -40 30
10 24 25 -10 25 -68 0 -74 87 -7 115 57 24 96 6 129 -59 16 -31 19 -52 15 -96
-9 -105 -71 -188 -190 -254 -241 -135 -531 -199 -796 -176 -276 25 -413 85
-476 211 -36 69 -35 156 1 198 21 26 33 31 68 31 57 0 95 -36 80 -78 -7 -19
-17 -28 -37 -30 -33 -4 -37 -32 -4 -32 13 0 33 9 45 20 57 54 7 150 -79 150
-132 0 -172 -165 -74 -309 18 -28 32 -51 29 -51 -2 0 -37 16 -77 36 -98 50
-227 140 -314 219 -81 74 -207 226 -195 235 4 4 78 18 165 31 107 16 157 28
157 36 0 17 -6 17 -191 -13 -88 -14 -162 -24 -163 -22 -2 2 -15 24 -30 49
l-27 47 23 5 c13 3 105 18 206 33 129 20 182 32 182 41 0 18 -6 17 -217 -17
-101 -16 -190 -30 -197 -30 -14 0 -81 139 -71 148 7 7 2627 429 2673 431 l33
1 -6 -52z m-2565 17 c13 -14 21 -25 18 -25 -2 0 -15 11 -28 25 -13 14 -21 25
-18 25 2 0 15 -11 28 -25z m-39 -2 c13 -16 12 -17 -3 -4 -10 7 -18 15 -18 17
0 8 8 3 21 -13z m-11 -18 c13 -14 21 -25 18 -25 -2 0 -15 11 -28 25 -13 14
-21 25 -18 25 2 0 15 -11 28 -25z m-85 -25 c10 -11 16 -20 13 -20 -3 0 -13 9
-23 20 -10 11 -16 20 -13 20 3 0 13 -9 23 -20z m46 -7 c13 -17 13 -17 -6 -3
-11 8 -22 16 -24 17 -2 2 0 3 6 3 6 0 17 -8 24 -17z m-136 -13 c10 -11 16 -20
13 -20 -3 0 -13 9 -23 20 -10 11 -16 20 -13 20 3 0 13 -9 23 -20z m41 -2 l19
-23 -25 20 c-14 11 -27 21 -29 22 -2 2 0 3 6 3 5 0 18 -10 29 -22z"/>
<path d="M3541 5630 c17 -32 23 -61 23 -100 -1 -64 -21 -109 -114 -251 -87
-134 -114 -233 -90 -321 16 -56 26 -53 27 8 2 64 30 130 108 254 73 116 103
184 111 253 8 69 -12 130 -57 173 l-31 29 23 -45z"/>
<path d="M3338 4773 c7 -3 16 -2 19 1 4 3 -2 6 -13 5 -11 0 -14 -3 -6 -6z"/>
<path d="M3452 4720 c0 -14 2 -19 5 -12 2 6 2 18 0 25 -3 6 -5 1 -5 -13z"/>
<path d="M3087 4709 c7 -7 15 -10 18 -7 3 3 -2 9 -12 12 -14 6 -15 5 -6 -5z"/>
<path d="M3440 4684 c0 -6 7 -19 16 -30 14 -18 14 -18 3 6 -14 31 -19 36 -19
24z"/>
<path d="M3188 4673 c7 -3 16 -2 19 1 4 3 -2 6 -13 5 -11 0 -14 -3 -6 -6z"/>
<path d="M3248 4673 c6 -2 18 -2 25 0 6 3 1 5 -13 5 -14 0 -19 -2 -12 -5z"/>
<path d="M3486 4652 c-3 -5 1 -9 9 -9 8 0 12 4 9 9 -3 4 -7 8 -9 8 -2 0 -6 -4
-9 -8z"/>
<path d="M3540 4780 c0 -5 5 -10 11 -10 5 0 7 5 4 10 -3 6 -8 10 -11 10 -2 0
-4 -4 -4 -10z"/>
<path d="M3830 4770 c-11 -8 -7 -9 15 -4 37 8 45 14 19 14 -10 0 -26 -5 -34
-10z"/>
<path d="M4010 4750 c8 -5 22 -9 30 -9 10 0 8 3 -5 9 -27 12 -43 12 -25 0z"/>
<path d="M3938 4743 c7 -3 16 -2 19 1 4 3 -2 6 -13 5 -11 0 -14 -3 -6 -6z"/>
<path d="M4087 4724 c3 -7 9 -14 14 -14 14 0 10 17 -5 23 -10 4 -13 1 -9 -9z"/>
<path d="M3995 4691 c-3 -5 0 -13 6 -17 7 -4 9 -3 5 4 -3 6 3 12 16 15 23 4
23 4 1 6 -12 0 -24 -3 -28 -8z"/>
<path d="M3948 4673 c7 -3 16 -2 19 1 4 3 -2 6 -13 5 -11 0 -14 -3 -6 -6z"/>
<path d="M2873 3494 c-45 -22 -53 -56 -53 -216 0 -136 1 -140 26 -164 21 -22
31 -25 62 -19 89 17 102 46 102 225 0 126 -7 164 -34 182 -18 13 -69 8 -103
-8z m52 -34 c10 -11 16 -20 13 -20 -3 0 -13 9 -23 20 -10 11 -16 20 -13 20 3
0 13 -9 23 -20z m40 0 c10 -11 16 -20 13 -20 -3 0 -13 9 -23 20 -10 11 -16 20
-13 20 3 0 13 -9 23 -20z m-80 -30 c10 -11 16 -20 13 -20 -3 0 -13 9 -23 20
-10 11 -16 20 -13 20 3 0 13 -9 23 -20z m36 3 c13 -16 12 -17 -3 -4 -17 13
-22 21 -14 21 2 0 10 -8 17 -17z m-30 -40 c13 -16 12 -17 -3 -4 -17 13 -22 21
-14 21 2 0 10 -8 17 -17z m0 -30 c13 -16 12 -17 -3 -4 -17 13 -22 21 -14 21 2
0 10 -8 17 -17z m-20 -50 c13 -16 12 -17 -3 -4 -17 13 -22 21 -14 21 2 0 10
-8 17 -17z m4 -33 c10 -11 16 -20 13 -20 -3 0 -13 9 -23 20 -10 11 -16 20 -13
20 3 0 13 -9 23 -20z m5 -35 c13 -14 21 -25 18 -25 -2 0 -15 11 -28 25 -13 14
-21 25 -18 25 2 0 15 -11 28 -25z m0 -30 c13 -14 21 -25 18 -25 -2 0 -15 11
-28 25 -13 14 -21 25 -18 25 2 0 15 -11 28 -25z m11 -42 c13 -16 12 -17 -3 -4
-17 13 -22 21 -14 21 2 0 10 -8 17 -17z"/>
<path d="M4375 2705 c-5 -2 -27 -6 -47 -10 l-38 -6 0 -184 0 -185 34 0 35 0 3
52 c3 52 3 53 40 59 47 7 86 33 98 65 6 14 10 57 10 95 0 61 -3 73 -25 94 -22
23 -74 32 -110 20z m59 -91 c20 -51 -10 -114 -54 -114 -18 0 -20 7 -20 65 l0
65 34 0 c22 0 36 -6 40 -16z"/>
<path d="M3921 2631 c-53 -28 -60 -51 -61 -194 0 -123 1 -129 25 -152 42 -43
149 -28 202 27 28 29 28 30 28 163 0 165 -6 175 -99 175 -39 -1 -73 -7 -95
-19z m100 -61 c17 -9 19 -22 19 -102 0 -103 -12 -128 -61 -128 -38 0 -49 24
-49 110 0 78 10 107 43 120 29 11 26 11 48 0z"/>
<path d="M3628 2593 c-15 -4 -18 -16 -18 -79 0 -56 -3 -74 -14 -74 -7 0 -28
-3 -45 -6 l-31 -6 0 77 c0 66 -2 76 -16 71 -9 -3 -24 -6 -35 -6 -18 0 -19 -9
-19 -191 l0 -191 23 6 c12 3 28 6 35 6 8 0 12 23 12 80 0 61 3 80 14 80 7 0
28 3 45 6 l31 7 0 -77 0 -77 38 3 37 3 3 188 2 187 -22 -1 c-13 -1 -31 -3 -40
-6z"/>
<path d="M3109 2509 c-60 -35 -83 -93 -57 -142 16 -31 36 -44 94 -62 29 -8 55
-22 58 -31 8 -21 8 -20 -10 -38 -21 -22 -49 -20 -72 4 -18 20 -19 20 -46 -9
-23 -24 -26 -32 -17 -49 6 -11 27 -26 47 -32 90 -30 184 38 184 133 0 46 -32
76 -107 102 -65 23 -78 45 -37 64 24 10 31 9 54 -7 26 -19 26 -19 55 4 l29 23
-29 31 c-35 37 -91 40 -146 9z"/>
<path d="M3915 2081 c-149 -67 -213 -319 -106 -415 20 -18 22 -18 40 -2 10 9
31 40 46 68 24 44 28 63 27 123 -2 90 10 134 53 190 19 25 35 47 35 50 0 12
-58 3 -95 -14z"/>
<path d="M4014 2048 c-43 -52 -57 -96 -59 -188 -1 -88 -21 -147 -67 -196 -26
-29 -10 -38 41 -24 65 17 122 68 160 142 28 56 34 78 34 135 1 69 -9 100 -46
141 -27 29 -30 28 -63 -10z"/>
<path d="M3526 2037 c-17 -13 -16 -15 15 -27 53 -22 110 -80 135 -137 29 -64
44 -75 44 -31 1 18 8 51 16 73 32 82 32 82 -27 110 -61 28 -153 34 -183 12z"/>
<path d="M3469 1973 c-43 -113 106 -293 243 -293 l37 0 -14 39 c-7 22 -23 49
-34 60 -11 11 -32 44 -47 73 -14 29 -36 64 -48 76 -18 21 -105 72 -121 72 -3
0 -10 -12 -16 -27z"/>
</g>
</svg>
